{
  "block_number": 922585,
  "block_time": "2025-11-07T03:31:27",
  "mined_by": "SpiderPool",
  "transaction_id": "3748dde102943dd7da4726e571d1e024ada17b676c0d06497bf6ad8df32435d0",
  "vout_index": 1,
  "data_size": 10498,
  "file_type": "binary",
  "mime_type": "application/octet-stream",
  "raw_data_hex": "4d546864000000060001000500604d54726b0000001300ff58040402600800ff510308b82400ff2f004d54726b0000099900ff031853657175656e63656420627920502e4a2e204261726e657300b0000000c01a00ff58040402600800ff510308b82400904c4010804c4008904c4010804c4020904c4010804c40209048401080484008904c4010804c4020904f4010804f40813090484010804840389043401080434038904040108040403890454010804540209047401080474020904640108046400890454010804540209043401080434010904c4010804c4010904f4010804f40109051401080514020904d4010804d4008904f4010804f4020904c4010804c40209048401080484008904a4010804a4008904740108047403890484010804840389043401080434038904040108040403890454010804540209047401080474020904640108046400890454010804540209043401080434010904c4010804c4010904f4010804f40109051401080514020904d4010804d4008904f4010804f4020904c4010804c40209048401080484008904a4010804a40089047401080474068904f4010804f4008904e4010804e4008904d4010804d4008904b4010804b4020904c4010804c402090444010804440089045401080454008904840108048402090454010804540089048401080484008904a4010804a4038904f4010804f4008904e4010804e4008904d4010804d4008904b4010804b4020904c4010804c402090544010805440209054401080544008905440108054408100904f4010804f4008904e4010804e4008904d4010804d4008904b4010804b4020904c4010804c402090444010804440089045401080454008904840108048402090454010804540089048401080484008904a4010804a4038904b4010804b4038904a4010804a4038904840108048408160904f4010804f4008904e4010804e4008904d4010804d4008904b4010804b4020904c4010804c402090444010804440089045401080454008904840108048402090454010804540089048401080484008904a4010804a4038904f4010804f4008904e4010804e4008904d4010804d4008904b4010804b4020904c4010804c402090544010805440209054401080544008905440108054408100904f4010804f4008904e4010804e4008904d4010804d4008904b4010804b4020904c4010804c402090444010804440089045401080454008904840108048402090454010804540089048401080484008904a4010804a4038904b4010804b4038904a4010804a40389048401080484081309048401080484008904840108048402090484010804840209048401080484008904a4010804a4020904c4010804c40089048401080484020904540108045400890434010804340509048401080484008904840108048402090484010804840209048401080484008904a4010804a4008904c4010804c4081489048401080484008904840108048402090484010804840209048401080484008904a4010804a4020904c4010804c4008904840108048402090454010804540089043401080434050904c4010804c4008904c4010804c4020904c4010804c40209048401080484008904c4010804c4020904f4010804f40813090484010804840389043401080434038904040108040403890454010804540209047401080474020904640108046400890454010804540209043401080434010904c4010804c4010904f4010804f40109051401080514020904d4010804d4008904f4010804f4020904c4010804c40209048401080484008904a4010804a4008904740108047403890484010804840389043401080434038904040108040403890454010804540209047401080474020904640108046400890454010804540209043401080434010904c4010804c4010904f4010804f40109051401080514020904d4010804d4008904f4010804f4020904c4010804c40209048401080484008904a4010804a40089047401080474038904c4010804c40089048401080484020904340108043403890444010804440209045401080454008904d4010804d4020904d4010804d400890454010804540509047401080474010905140108051401090514010805140109051401080514010904f4010804f4010904d4010804d4010904c4010804c4008904840108048402090454010804540089043401080434050904c4010804c40089048401080484020904340108043403890444010804440209045401080454008904d4010804d4020904d4010804d400890454010804540509047401080474008904d4010804d4020904d4010804d4008904d4010804d4010904c4010804c4010904a4010804a4010904840108048408130904c4010804c40089048401080484020904340108043403890444010804440209045401080454008904d4010804d4020904d4010804d400890454010804540509047401080474010905140108051401090514010805140109051401080514010904f4010804f4010904d4010804d4010904c4010804c4008904840108048402090454010804540089043401080434050904c4010804c40089048401080484020904340108043403890444010804440209045401080454008904d4010804d4020904d4010804d400890454010804540509047401080474008904d4010804d4020904d4010804d4008904d4010804d4010904c4010804c4010904a4010804a40109048401080484081309048401080484008904840108048402090484010804840209048401080484008904a4010804a4020904c4010804c40089048401080484020904540108045400890434010804340509048401080484008904840108048402090484010804840209048401080484008904a4010804a4008904c4010804c4081489048401080484008904840108048402090484010804840209048401080484008904a4010804a4020904c4010804c4008904840108048402090454010804540089043401080434050904c4010804c4008904c4010804c4020904c4010804c40209048401080484008904c4010804c4020904f4010804f408130904c4010804c40089048401080484020904340108043403890444010804440209045401080454008904d4010804d4020904d4010804d400890454010804540509047401080474010905140108051401090514010805140109051401080514010904f4010804f4010904d4010804d4010904c4010804c4008904840108048402090454010804540089043401080434050904c4010804c40089048401080484020904340108043403890444010804440209045401080454008904d4010804d4020904d4010804d400890454010804540509047401080474008904d4010804d4020904d4010804d4008904d4010804d4010904c4010804c4010904a4010804a40109048401080484000ff2f004d54726b000009e900ff030d436f756e7465726d656c6f647900b1000000c11a00ff58040402600800ff510308b8240091424010814240089142401081424020914240108142402091424010814240089142401081424020914740108147405091434010814340509140401081404038913c4010813c40389137401081374038913c4010813c4020913e4010813e4020913d4010813d4008913c4010813c4020913c4010813c401091434010814340109147401081474010914840108148402091454010814540089147401081474020914540108145402091404010814040089141401081414008913e4010813e40389140401081404038913c4010813c40389137401081374038913c4010813c4020913e4010813e4020913d4010813d4008913c4010813c4020913c4010813c401091434010814340109147401081474010914840108148402091454010814540089147401081474020914540108145402091404010814040089141401081414008913e4010813e4068914c4010814c4008914b4010814b4008914a4010814a400891474010814740209148401081484020914040108140400891414010814140089143401081434020913c4010813c400891404010814040089141401081414038914c4010814c4008914b4010814b4008914a4010814a400891474010814740209148401081484020914d4010814d4020914d4010814d4008914d4010814d408100914c4010814c4008914b4010814b4008914a4010814a400891474010814740209148401081484020914040108140400891414010814140089143401081434020913c4010813c40089140401081404008914140108141403891444010814440389141401081414038914040108140408160914c4010814c4008914b4010814b4008914a4010814a400891474010814740209148401081484020914040108140400891414010814140089143401081434020913c4010813c400891404010814040089141401081414038914c4010814c4008914b4010814b4008914a4010814a400891474010814740209148401081484020914d4010814d4020914d4010814d4008914d4010814d408100914c4010814c4008914b4010814b4008914a4010814a400891474010814740209148401081484020914040108140400891414010814140089143401081434020913c4010813c4008914040108140400891414010814140389144401081444038914140108141403891404010814040813091444010814440089144401081444020914440108144402091444010814440089146401081464020914340108143400891404010814040209140401081404008913c4010813c40509144401081444008914440108144402091444010814440209144401081444008914640108146400891434010814340814891444010814440089144401081444020914440108144402091444010814440089146401081464020914340108143400891404010814040209140401081404008913c4010813c405091424010814240089142401081424020914240108142402091424010814240089142401081424020914740108147405091434010814340509140401081404038913c4010813c40389137401081374038913c4010813c4020913e4010813e4020913d4010813d4008913c4010813c4020913c4010813c401091434010814340109147401081474010914840108148402091454010814540089147401081474020914540108145402091404010814040089141401081414008913e4010813e40389140401081404038913c4010813c40389137401081374038913c4010813c4020913e4010813e4020913d4010813d4008913c4010813c4020913c4010813c401091434010814340109147401081474010914840108148402091454010814540089147401081474020914540108145402091404010814040089141401081414008913e4010813e4038914840108148400891454010814540209140401081404038914040108140402091414010814140089148401081484020914840108148400891414010814140509143401081434010914d4010814d4010914d4010814d4010914d4010814d4010914c4010814c4010914a4010814a40109148401081484008914540108145402091414010814140089140401081404050914840108148400891454010814540209140401081404038914040108140402091414010814140089148401081484020914840108148400891414010814140509143401081434008914a4010814a4020914a4010814a4008914a4010814a401091484010814840109147401081474010914340108143400891404010814040209140401081404008913c4010813c4050914840108148400891454010814540209140401081404038914040108140402091414010814140089148401081484020914840108148400891414010814140509143401081434010914d4010814d4010914d4010814d4010914d4010814d4010914c4010814c4010914a4010814a40109148401081484008914540108145402091414010814140089140401081404050914840108148400891454010814540209140401081404038914040108140402091414010814140089148401081484020914840108148400891414010814140509143401081434008914a4010814a4020914a4010814a4008914a4010814a401091484010814840109147401081474010914340108143400891404010814040209140401081404008913c4010813c405091444010814440089144401081444020914440108144402091444010814440089146401081464020914340108143400891404010814040209140401081404008913c4010813c40509144401081444008914440108144402091444010814440209144401081444008914640108146400891434010814340814891444010814440089144401081444020914440108144402091444010814440089146401081464020914340108143400891404010814040209140401081404008913c4010813c40509142401081424008914240108142402091424010814240209142401081424008914240108142402091474010814740509143401081434050914840108148400891454010814540209140401081404038914040108140402091414010814140089148401081484020914840108148400891414010814140509143401081434010914d4010814d4010914d4010814d4010914d4010814d4010914c4010814c4010914a4010814a40109148401081484008914540108145402091414010814140089140401081404050914840108148400891454010814540209140401081404038914040108140402091414010814140089148401081484020914840108148400891414010814140509143401081434008914a4010814a4020914a4010814a4008914a4010814a401091484010814840109147401081474010914340108143400891404010814040209140401081404008913c4010813c4000ff2f004d54726b0000093f00ff030942617373204c696e6500b2000000c21a00ff58040402600800ff510308b82400923240108232400892324010823240209232401082324020923240108232400892324010823240209243401082434050923740108237405092374010823740389234401082344038923040108230403892354010823540209237401082374020923640108236400892354010823540209234401082344010923c4010823c401092404010824040109241401082414020923e4010823e40089240401082404020923c4010823c40209239401082394008923b4010823b4008923740108237403892374010823740389234401082344038923040108230403892354010823540209237401082374020923640108236400892354010823540209234401082344010923c4010823c401092404010824040109241401082414020923e4010823e40089240401082404020923c4010823c40209239401082394008923b4010823b4008923740108237403892304010823040389237401082374038923c4010823c40209235401082354038923c4010823c4008923c4010823c40209235401082354020923040108230403892344010823440389237401082374008923c4010823c4020924f4010824f4020924f4010824f4008924f4010824f4020923740108237402092304010823040389237401082374038923c4010823c40209235401082354038923c4010823c4008923c4010823c4020923540108235402092304010823040209238401082384038923a4010823a4038923c4010823c403892374010823740089237401082374020923040108230402092304010823040389237401082374038923c4010823c40209235401082354038923c4010823c4008923c4010823c40209235401082354020923040108230403892344010823440389237401082374008923c4010823c4020924f4010824f4020924f4010824f4008924f4010824f4020923740108237402092304010823040389237401082374038923c4010823c40209235401082354038923c4010823c4008923c4010823c4020923540108235402092304010823040209238401082384038923a4010823a4038923c4010823c4038923740108237400892374010823740209230401082304020922c4010822c40389233401082334038923840108238402092374010823740389230401082304038922b4010822b4020922c4010822c40389233401082334038923840108238402092374010823740389230401082304038922b4010822b4020922c4010822c40389233401082334038923840108238402092374010823740389230401082304038922b4010822b4020923240108232400892324010823240209232401082324020923240108232400892324010823240209243401082434050923740108237405092374010823740389234401082344038923040108230403892354010823540209237401082374020923640108236400892354010823540209234401082344010923c4010823c401092404010824040109241401082414020923e4010823e40089240401082404020923c4010823c40209239401082394008923b4010823b4008923740108237403892374010823740389234401082344038923040108230403892354010823540209237401082374020923640108236400892354010823540209234401082344010923c4010823c401092404010824040109241401082414020923e4010823e40089240401082404020923c4010823c40209239401082394008923b4010823b40089237401082374038923040108230403892364010823640089237401082374020923c4010823c402092354010823540209235401082354020923c4010823c4008923c4010823c40089235401082354020923240108232403892354010823540089237401082374020923b4010823b402092374010823740209237401082374020923c4010823c4008923c4010823c40089237401082374020923040108230403892364010823640089237401082374020923c4010823c402092354010823540209235401082354020923c4010823c4008923c4010823c4008923540108235402092374010823740089237401082374020923740108237400892374010823740109239401082394010923b4010823b4010923c4010823c402092374010823740209230401082304050923040108230403892364010823640089237401082374020923c4010823c402092354010823540209235401082354020923c4010823c4008923c4010823c40089235401082354020923240108232403892354010823540089237401082374020923b4010823b402092374010823740209237401082374020923c4010823c4008923c4010823c40089237401082374020923040108230403892364010823640089237401082374020923c4010823c402092354010823540209235401082354020923c4010823c4008923c4010823c4008923540108235402092374010823740089237401082374020923740108237400892374010823740109239401082394010923b4010823b4010923c4010823c402092374010823740209230401082304050922c4010822c40389233401082334038923840108238402092374010823740389230401082304038922b4010822b4020922c4010822c40389233401082334038923840108238402092374010823740389230401082304038922b4010822b4020922c4010822c40389233401082334038923840108238402092374010823740389230401082304038922b4010822b40209232401082324008923240108232402092324010823240209232401082324008923240108232402092434010824340509237401082374050923040108230403892364010823640089237401082374020923c4010823c402092354010823540209235401082354020923c4010823c4008923c4010823c40089235401082354020923240108232403892354010823540089237401082374020923b4010823b402092374010823740209237401082374020923c4010823c4008923c4010823c40089237401082374020923040108230403892364010823640089237401082374020923c4010823c402092354010823540209235401082354020923c4010823c4008923c4010823c4008923540108235402092374010823740089237401082374020923740108237400892374010823740109239401082394010923b4010823b4010923c4010823c402092374010823740209230401082304000ff2f004d54726b00000bf800ff030a50657263757373696f6e00b9000000c90000ff58040402600800ff510308b82400992a6020892a4010992a6010892a4008992a6020892a4010992a6010892a4008992a6020892a4010992a6020892a4028992a6020892a4010992a6010892a4008992a6010892a4008992a6010892a4008992a6010892a4020992a6010892a4010992a6010892a4000992a6020892a4010992a6010892a4010992a6010892a4000992a6010892a4020992a6010892a4010992a6010892a4000992a6020892a4010992a6010892a4010992a6010892a4000992a6010892a4020992a6010892a4010992a6010892a4000992a6020892a4010992a6010892a4010992a6010892a4000992a6010892a4020992a6010892a4010992a6010892a4000992a6020892a4010992a6010892a4010992a6010892a4000992a6010892a4020992a6010892a4010992a6010892a4000992a6020892a4010992a6010892a4010992a6010892a4000992a6010892a4020992a6010892a4010992a6010892a4000992a6020892a4010992a6010892a4010992a6010892a4000992a6010892a4020992a6010892a4010992a6010892a4000992a6020892a4010992a6010892a4010992a6010892a4000992a6010892a4020992a6010892a4010992a6010892a4000992a6020892a4010992a6010892a4010992a6010892a4000992a6010892a4020992a6010892a4010992a6010892a4000992a6020892a4010992a6010892a4010992a6010892a4000992a6010892a4020992a6010892a4010992a6010892a4000992a6020892a4010992a6010892a4010992a6010892a4000992a6010892a4020992a6010892a4010992a6010892a4000992a6020892a4010992a6010892a4010992a6010892a4000992a6010892a4020992a6010892a4010992a6010892a4000992a6020892a4010992a6010892a4010992a6010892a4000992a6010892a4020992a6010892a4010992a6010892a4000992a6020892a4010992a6010892a4010992a6010892a4000992a6010892a4020992a6010892a4010992a6010892a4000992a6020892a4010992a6010892a4010992a6010892a4000992a6010892a4020992a6010892a4010992a6010892a4000992a6020892a4010992a6010892a4010992a6010892a4000992a6010892a4020992a6010892a4010992a6010892a4000992a6020892a4010992a6010892a4010992a6010892a4000992a6010892a4020992a6010892a4010992a6010892a4000992a6020892a4010992a6010892a4010992a6010892a4000992a6010892a4020992a6010892a4010992a6010892a4000992a6020892a4010992a6010892a4010992a6010892a4000992a6010892a4020992a6010892a4010992a6010892a4000992a6020892a4010992a6010892a4010992a6010892a4000992a6010892a4020992a6010892a4010992a6010892a4000992a6020892a4010992a6010892a4010992a6010892a4000992a6010892a4020992a6010892a4010992a6010892a4000992a6020892a4010992a6010892a4010992a6010892a4000992a6010892a4020992a6010892a4010992a6010892a4000992a6020892a4010992a6010892a4010992a6010892a4000992a6010892a4020992a6010892a4010992a6010892a4000992a6020892a4010992a6010892a4010992a6010892a4000992a6010892a4020992a6010892a4010992a6010892a4000992a6020892a4010992a6010892a4010992a6010892a4000992a6020892a4010992a6010892a4008992a6020892a4010992a6010892a4008992a6020892a4010992a6020892a4028992a6020892a4010992a6010892a4008992a6010892a4008992a6010892a4008992a6020892a4010992a6010892a4008992a6020892a4010992a6010892a4008992a6020892a4010992a6020892a4028992a6020892a4010992a6010892a4008992a6010892a4008992a6010892a4008992a6020892a4010992a6010892a4008992a6020892a4010992a6010892a4008992a6020892a4010992a6020892a4028992a6020892a4010992a6010892a4008992a6010892a4008992a6010892a4008992a6020892a4010992a6010892a4008992a6020892a4010992a6010892a4008992a6020892a4010992a6020892a4028992a6020892a4010992a6010892a4008992a6010892a4008992a6010892a4008992a6010892a4020992a6010892a4010992a6010892a4000992a6020892a4010992a6010892a4010992a6010892a4000992a6010892a4020992a6010892a4010992a6010892a4000992a6020892a4010992a6010892a4010992a6010892a4000992a6010892a4020992a6010892a4010992a6010892a4000992a6020892a4010992a6010892a4010992a6010892a4000992a6010892a4020992a6010892a4010992a6010892a4000992a6020892a4010992a6010892a4010992a6010892a4000992a6010892a4020992a6010892a4010992a6010892a4000992a6020892a4010992a6010892a4010992a6010892a4000992a6010892a4020992a6010892a4010992a6010892a4000992a6020892a4010992a6010892a4010992a6010892a4000992a6010892a4020992a6010892a4010992a6010892a4000992a6020892a4010992a6010892a4010992a6010892a4000992a6010892a4020992a6010892a4010992a6010892a4000992a6020892a4010992a6010892a4010992a6010892a4000992a6010892a4038992a6010892a4008992a6020892a4010992a6010892a4020992a6010892a4038992a6010892a4008992a6020892a4010992a6010892a4020992a6010892a4038992a6010892a4008992a6020892a4010992a6010892a4020992a6010892a4038992a6010892a4008992a6020892a4010992a6010892a4020992a6010892a4038992a6010892a4008992a6020892a4010992a6010892a4020992a6010892a4038992a6010892a4008992a6020892a4010992a6010892a4020992a6010892a4038992a6010892a4008992a6020892a4010992a6010892a4020992a6010892a4038992a6010892a4008992a6020892a4010992a6010892a4020992a6010892a4038992a6010892a4008992a6020892a4010992a6010892a4020992a6010892a4038992a6010892a4008992a6020892a4010992a6010892a4020992a6010892a4038992a6010892a4008992a6020892a4010992a6010892a4020992a6010892a4038992a6010892a4008992a6020892a4010992a6010892a4020992a6010892a4038992a6010892a4008992a6020892a4010992a6010892a4020992a6010892a4038992a6010892a4008992a6020892a4010992a6010892a4020992a6010892a4038992a6010892a4008992a6020892a4010992a6010892a4020992a6010892a4038992a6010892a4008992a6020892a4010992a6010892a4020992a6020892a4010992a6010892a4008992a6020892a4010992a6010892a4008992a6020892a4010992a6020892a4028992a6020892a4010992a6010892a4008992a6010892a4008992a6010892a4008992a6020892a4010992a6010892a4008992a6020892a4010992a6010892a4008992a6020892a4010992a6020892a4028992a6020892a4010992a6010892a4008992a6010892a4008992a6010892a4008992a6020892a4010992a6010892a4008992a6020892a4010992a6010892a4008992a6020892a4010992a6020892a4028992a6020892a4010992a6010892a4008992a6010892a4008992a6010892a4008992a6020892a4010992a6010892a4008992a6020892a4010992a6010892a4008992a6020892a4010992a6020892a4028992a6020892a4010992a6010892a4008992a6010892a4008992a6010892a4008992a6010892a4038992a6010892a4008992a6020892a4010992a6010892a4020992a6010892a4038992a6010892a4008992a6020892a4010992a6010892a4020992a6010892a4038992a6010892a4008992a6020892a4010992a6010892a4020992a6010892a4038992a6010892a4008992a6020892a4010992a6010892a4020992a6010892a4038992a6010892a4008992a6020892a4010992a6010892a4020992a6010892a4038992a6010892a4008992a6020892a4010992a6010892a4020992a6010892a4038992a6010892a4008992a6020892a4010992a6010892a4020992a6010892a4038992a6010892a4008992a6020892a4010992a6010892a4000ff2f00",
  "transaction_fee_sats": 3200,
  "transaction_size_vbytes": 10643,
  "fee_rate_sats_per_vbyte": 0.3,
  "cost_per_byte_of_data": 0.3,
  "tx_inputs": 1,
  "tx_outputs": 3
}